<svg width="32" height="32" viewBox="0 0 32 32" fill="none" xmlns="http://www.w3.org/2000/svg">
<path d="M11.3572 12.98V20H9.64723V17.11H6.98723V20H5.27723V12.98H6.98723V15.73H9.64723V12.98H11.3572ZM13.4517 13.84C13.1517 13.84 12.905 13.7533 12.7117 13.58C12.525 13.4 12.4317 13.18 12.4317 12.92C12.4317 12.6533 12.525 12.4333 12.7117 12.26C12.905 12.08 13.1517 11.99 13.4517 11.99C13.745 11.99 13.985 12.08 14.1717 12.26C14.365 12.4333 14.4617 12.6533 14.4617 12.92C14.4617 13.18 14.365 13.4 14.1717 13.58C13.985 13.7533 13.745 13.84 13.4517 13.84ZM14.3017 14.42V20H12.5917V14.42H14.3017ZM18.0509 18.4L19.2609 14.42H21.0809L19.1009 20H16.9909L15.0109 14.42H16.8409L18.0509 18.4ZM27.0607 17.12C27.0607 17.28 27.0507 17.4467 27.0307 17.62H23.1607C23.1873 17.9667 23.2973 18.2333 23.4907 18.42C23.6907 18.6 23.934 18.69 24.2207 18.69C24.6473 18.69 24.944 18.51 25.1107 18.15H26.9307C26.8373 18.5167 26.6673 18.8467 26.4207 19.14C26.1807 19.4333 25.8773 19.6633 25.5107 19.83C25.144 19.9967 24.734 20.08 24.2807 20.08C23.734 20.08 23.2473 19.9633 22.8207 19.73C22.394 19.4967 22.0607 19.1633 21.8207 18.73C21.5807 18.2967 21.4607 17.79 21.4607 17.21C21.4607 16.63 21.5773 16.1233 21.8107 15.69C22.0507 15.2567 22.384 14.9233 22.8107 14.69C23.2373 14.4567 23.7273 14.34 24.2807 14.34C24.8207 14.34 25.3007 14.4533 25.7207 14.68C26.1407 14.9067 26.4673 15.23 26.7007 15.65C26.9407 16.07 27.0607 16.56 27.0607 17.12ZM25.3107 16.67C25.3107 16.3767 25.2107 16.1433 25.0107 15.97C24.8107 15.7967 24.5607 15.71 24.2607 15.71C23.974 15.71 23.7307 15.7933 23.5307 15.96C23.3373 16.1267 23.2173 16.3633 23.1707 16.67H25.3107Z" fill="#5038BC"/>
</svg>
