<svg width="32" height="32" viewBox="0 0 32 32" fill="none" xmlns="http://www.w3.org/2000/svg">
<rect x="8.49976" y="7.71875" width="3.54486" height="20.2808" fill="#5038BC"/>
<path d="M19.7991 4L23.3439 7.71911L8.49982 7.71911L12.0447 4L19.7991 4Z" fill="#5038BC"/>
<path d="M11.5461 16.9004L13.3186 13.1813L23.3439 13.1813L19.799 16.9004L11.5461 16.9004Z" fill="#5038BC"/>
<mask id="mask0_173_463" style="mask-type:alpha" maskUnits="userSpaceOnUse" x="8" y="7" width="5" height="16">
<rect opacity="0.45" x="8.49976" y="7.71875" width="3.54486" height="14.8764" fill="#B9B9B9"/>
</mask>
<g mask="url(#mask0_173_463)">
<ellipse opacity="0.5" cx="11.5732" cy="7.72684" rx="3.91912" ry="2.36649" fill="url(#paint0_radial_173_463)"/>
<ellipse opacity="0.5" cx="13.6505" cy="16.9006" rx="3.65564" ry="2.55689" fill="url(#paint1_radial_173_463)"/>
</g>
<mask id="mask1_173_463" style="mask-type:alpha" maskUnits="userSpaceOnUse" x="12" y="4" width="8" height="4">
<rect opacity="0.45" x="19.799" y="4" width="3.71911" height="7.75439" transform="rotate(90 19.799 4)" fill="#5038BC"/>
</mask>
<g mask="url(#mask1_173_463)">
<ellipse opacity="0.5" cx="19.9656" cy="7.07994" rx="3.661" ry="2.27093" transform="rotate(90 19.9656 7.07994)" fill="#5038BC"/>
</g>
<mask id="mask2_173_463" style="mask-type:alpha" maskUnits="userSpaceOnUse" x="15" y="4" width="6" height="4">
<rect opacity="0.45" x="20.4998" y="4" width="3.46133" height="5.00003" transform="rotate(90 20.4998 4)" fill="#B9B9B9"/>
</mask>
<g mask="url(#mask2_173_463)">
<ellipse opacity="0.5" cx="20.8407" cy="6.86623" rx="3.40725" ry="2.32956" transform="rotate(90 20.8407 6.86623)" fill="url(#paint2_radial_173_463)"/>
</g>
<path d="M19.799 4L23.3439 7.71911V13.1816H19.799V4Z" fill="#5038BC"/>
<mask id="mask3_173_463" style="mask-type:alpha" maskUnits="userSpaceOnUse" x="19" y="8" width="5" height="6">
<rect opacity="0.45" x="23.344" y="13.1816" width="3.54486" height="5.11378" transform="rotate(-180 23.344 13.1816)" fill="#B9B9B9"/>
</mask>
<g mask="url(#mask3_173_463)">
<ellipse opacity="0.5" cx="20.4082" cy="13.5305" rx="3.48947" ry="2.38255" transform="rotate(-180 20.4082 13.5305)" fill="url(#paint3_radial_173_463)"/>
</g>
<mask id="mask4_173_463" style="mask-type:alpha" maskUnits="userSpaceOnUse" x="13" y="13" width="6" height="4">
<rect opacity="0.45" width="3.71911" height="4.87418" transform="matrix(-4.16634e-08 1 1 4.586e-08 13.3743 13.1816)" fill="#B9B9B9"/>
</mask>
<g mask="url(#mask4_173_463)">
<ellipse opacity="0.7" rx="6.56508" ry="2.31726" transform="matrix(0.621522 0.783397 0.753218 -0.657771 14.0394 16.1491)" fill="url(#paint4_radial_173_463)"/>
</g>
<path d="M11.5468 16.9008L13.3192 13.1817L23.3168 25.5303L20.6305 27.9709L11.5468 16.9008Z" fill="#5038BC"/>
<defs>
<radialGradient id="paint0_radial_173_463" cx="0" cy="0" r="1" gradientUnits="userSpaceOnUse" gradientTransform="translate(11.5732 7.72684) rotate(90) scale(2.36649 3.91912)">
<stop/>
<stop offset="0.917127" stop-opacity="0"/>
</radialGradient>
<radialGradient id="paint1_radial_173_463" cx="0" cy="0" r="1" gradientUnits="userSpaceOnUse" gradientTransform="translate(13.6505 16.9006) rotate(90) scale(2.55689 3.65564)">
<stop/>
<stop offset="0.917127" stop-opacity="0"/>
</radialGradient>
<radialGradient id="paint2_radial_173_463" cx="0" cy="0" r="1" gradientUnits="userSpaceOnUse" gradientTransform="translate(20.8407 6.86623) rotate(90) scale(2.32956 3.40725)">
<stop/>
<stop offset="0.917127" stop-opacity="0"/>
</radialGradient>
<radialGradient id="paint3_radial_173_463" cx="0" cy="0" r="1" gradientUnits="userSpaceOnUse" gradientTransform="translate(20.4082 13.5305) rotate(90) scale(2.38255 3.48947)">
<stop/>
<stop offset="0.917127" stop-opacity="0"/>
</radialGradient>
<radialGradient id="paint4_radial_173_463" cx="0" cy="0" r="1" gradientUnits="userSpaceOnUse" gradientTransform="translate(6.56508 2.31726) rotate(90) scale(2.31726 6.56508)">
<stop/>
<stop offset="0.917127" stop-opacity="0"/>
</radialGradient>
</defs>
</svg>
